<?xml version="1.0" encoding="utf-8"?>
<!-- Generator: Adobe Illustrator 26.2.1, SVG Export Plug-In . SVG Version: 6.00 Build 0)  -->
<svg version="1.1" id="레이어_1" xmlns="http://www.w3.org/2000/svg" xmlns:xlink="http://www.w3.org/1999/xlink" x="0px"
	 y="0px" viewBox="0 0 28 28" style="enable-background:new 0 0 28 28;" xml:space="preserve">
<style type="text/css">
	.st0{fill:#FFFFFF;}
</style>
<g>
	<path d="M25,28H3c-1.7,0-3-1.4-3-3V3c0-1.7,1.4-3,3-3h22c1.7,0,3,1.4,3,3v22C28,26.6,26.6,28,25,28z"/>
	<path class="st0" d="M9.8,9.5H7.2V8.4c0,0,3.7-1.7,5-1s2.4,10.6,2.4,10.6s3.6-4.2,3.6-6.9s-2.5-1.9-1.4-2.9c1.1-1.1,2-1.4,3.7-0.5
		c1.6,0.9-0.1,6.3-5.8,12.9h-2.8L9.8,9.5z"/>
</g>
</svg>
