<?xml version="1.0" encoding="utf-8"?>
<!-- Generator: Adobe Illustrator 26.2.1, SVG Export Plug-In . SVG Version: 6.00 Build 0)  -->
<svg version="1.1" id="레이어_1" xmlns="http://www.w3.org/2000/svg" xmlns:xlink="http://www.w3.org/1999/xlink" x="0px"
	 y="0px" viewBox="0 0 24 24" style="enable-background:new 0 0 24 24;" xml:space="preserve">
<g>
	<circle cx="12.12" cy="11.88" r="6"/>
	<g>
		<rect x="4.11" y="2.94" transform="matrix(0.7036 -0.7106 0.7106 0.7036 -1.9937 5.0946)" width="2" height="4"/>
		<rect x="17.96" y="16.65" transform="matrix(0.7036 -0.7106 0.7106 0.7036 -7.6288 19.001)" width="2" height="4"/>
	</g>
	<g>
		<rect x="1.25" y="9.83" transform="matrix(5.003928e-03 -1 1 5.003928e-03 -9.5869 14.018)" width="2" height="4"/>
		<rect x="20.75" y="9.92" transform="matrix(5.003928e-03 -1 1 5.003928e-03 9.7165 33.6076)" width="2" height="4"/>
	</g>
	<g>
		<rect x="3.13" y="17.85" transform="matrix(0.7081 -0.7062 0.7062 0.7081 -11.8123 9.1243)" width="4" height="2"/>
		<rect x="16.93" y="4.08" transform="matrix(0.7081 -0.7062 0.7062 0.7081 1.94 14.8486)" width="4" height="2"/>
	</g>
	<g>
		<rect x="11.12" y="19.75" width="2" height="4"/>
		<rect x="11.11" y="0.25" width="2" height="4"/>
	</g>
</g>
</svg>
