<?xml version="1.0" encoding="utf-8"?>
<!-- Generator: Adobe Illustrator 26.2.1, SVG Export Plug-In . SVG Version: 6.00 Build 0)  -->
<svg version="1.1" id="레이어_1" xmlns="http://www.w3.org/2000/svg" xmlns:xlink="http://www.w3.org/1999/xlink" x="0px"
	 y="0px" viewBox="0 0 68.58 24" style="enable-background:new 0 0 68.58 24;" xml:space="preserve">
<style type="text/css">
	.st0{fill:#343A40;}
</style>
<g>
	<path class="st0" d="M0.08,6.02H2.5c0,0-0.23,0.26-0.09,0.74c0.14,0.48,3.7,9.38,3.7,9.38s3.14-7.3,3.27-7.66
		c0.13-0.36,0.59-1.66,0.59-2.47h1.8c0,0-0.36,1.52-0.7,2.56s-3.82,9.34-4.33,10.36H5.15L0.08,6.02z"/>
	<path class="st0" d="M20.24,5.77c-6.11,0-5.9,6.44-5.78,8.03c0.13,1.58,1.28,4.44,4.55,5.15c3.27,0.71,5.42-1.06,6.08-1.77L24,16.1
		c0,0-1.58,2.1-4.55,1.3c-2.96-0.79-3.02-3.96-3.04-4.68h9.02C25.43,12.72,26.35,5.77,20.24,5.77z M16.41,11.22
		c0,0,0.26-3.96,3.71-3.96s3.48,3.96,3.48,3.96H16.41z"/>
	<polygon class="st0" points="29.39,0.23 35.18,0.23 35.18,17.36 38.85,17.36 38.85,18.94 29.39,18.94 29.39,17.31 33.16,17.31 
		33.16,1.83 29.39,1.83 	"/>
	<path class="st0" d="M48.23,5.77c-3.35,0-6.07,3-6.07,6.7s2.72,6.7,6.07,6.7s6.07-3,6.07-6.7S51.58,5.77,48.23,5.77z M48.23,17.45
		c-2.06,0-3.72-2.23-3.72-4.98c0-2.75,1.67-4.98,3.72-4.98c2.06,0,3.72,2.23,3.72,4.98C51.95,15.22,50.28,17.45,48.23,17.45z"/>
	<path class="st0" d="M64.21,16.65c-1.64-0.09-7.1,0.76-4.53-2.35l0-0.01c0.6,0.26,1.25,0.41,1.95,0.41c2.63,0,4.77-2.08,4.77-4.64
		c0-0.82-0.24-1.59-0.63-2.26h0.02c1.19-0.79,2.71-0.33,2.71-0.33l-0.28-1.72c-2.12-0.25-3.3,0.96-3.3,0.96l0,0.01
		c-0.86-0.8-2.02-1.3-3.3-1.3c-2.63,0-4.77,2.08-4.77,4.64c0,1.56,0.8,2.94,2.02,3.78c-0.61,0.45-2.64,2.2-0.49,4.03
		c0,0-2.68,1.22-1.98,3.53c0.71,2.31,4.75,2.45,6.12,2.33c1.36-0.12,5.36-0.69,5.41-3.65C67.98,17.12,65.84,16.75,64.21,16.65z
		 M61.62,7.49c1.43,0,2.59,1.16,2.59,2.59s-1.16,2.59-2.59,2.59c-1.43,0-2.59-1.16-2.59-2.59S60.19,7.49,61.62,7.49z M65.58,21.12
		c-1.55,1.32-5.98,1.65-7.15,0c-1.18-1.65,1.22-2.92,1.22-2.92c0.56,0.24,3.29,0.38,4.55,0.26C65.47,18.36,67.13,19.81,65.58,21.12z
		"/>
</g>
</svg>
